<?xml version="1.0" encoding="UTF-8"?><svg id="a" xmlns="http://www.w3.org/2000/svg" viewBox="0 0 2712.02 253.4"><path d="M156.96,229.16c-50.45,3.54-108.98-6.73-146.59-43.07-.36-.35-.34-.67.07-.97l30.92-22.41c.36-.26.7-.24,1.02.07,29.89,28.69,78.85,35.65,118.09,30.86,16.67-2.04,43.27-9.13,45-29.94,1.68-20.29-18.58-25.75-34.15-28.17-12.94-2-27.46-3.09-41.24-3.92-15.73-.95-31-2.61-45.81-5-6.64-1.07-13.56-2.78-20.77-5.13-8.77-2.87-16.48-7.92-23.11-15.16-10.2-11.14-13.72-26.54-12.23-41.55C31.67,29.52,62.54,12.67,94,7.56c26.67-4.34,53.43-3.94,80.28,1.19,25.11,4.8,51.73,16.01,69.61,34.68.25.26.24.67-.02.92-.04.04-.08.07-.12.1l-31.36,19.12c-.3.18-.69.16-.97-.05-19.48-14.9-44.15-22.18-68.83-23.74-14.32-.91-29.35-.39-43.58,2.55-12.2,2.53-28.81,9.34-29.98,23.71-.98,11.91,6.99,18.61,17.55,21.71,5.71,1.68,12.94,3.09,21.69,4.23,25.13,3.27,52.76,4.69,76.87,7.49,4.95.57,10.35,1.6,16.2,3.08,11.45,2.89,20.73,7.59,28.86,16.18,9.13,9.66,14.05,21.59,14.78,35.8,2.68,52.36-44.39,71.57-88.02,74.63Z" style="stroke-width:0px;"/><path d="M342.9,129.27c-13.01-1.29-25.18-3.52-36.53-6.69-9.15-2.55-17.17-7.18-24.06-13.88-10.93-10.6-15.41-24.81-14.77-39.98,1.69-40.26,36.7-57.44,72.2-62.12,24.12-3.18,48.18-2.59,72.18,1.76,12.24,2.23,24.17,5.87,35.8,10.93,13.35,5.81,26.51,13.94,35.9,24.29.2.22.18.55-.05.75-.02.02-.05.04-.07.06l-31.59,19.25c-.24.14-.54.12-.76-.05-24.62-18.97-57.05-25.19-87.63-24.1-16.14.57-47.05,3.39-53.82,21.82-2.08,5.67-1.43,12.57,2.17,17.41,4.22,5.68,11.55,8.59,18.36,10.15,6.38,1.46,12.64,2.55,18.79,3.26,20.41,2.38,40.33,4.23,59.75,5.55,2.59.17,8.51.85,17.74,2.04,8.45,1.09,18.75,3.32,26.29,6.87,16.44,7.73,26.66,20.56,30.66,38.51,1.2,5.38,1.55,11.78,1.04,19.21-2.92,43.09-43.76,60.19-80.72,64.19-16.99,1.85-34.99,1.75-53.98-.29-36.22-3.9-73.28-16.52-99.87-42.16-.22-.21-.23-.57-.02-.79.02-.03.05-.05.08-.07l31.05-22.51c.32-.23.62-.21.9.06,30.35,28.95,79.5,35.88,119.57,30.7,14.27-1.85,30.63-6.43,39.13-18.02,5.43-7.42,6.34-18.22,1.03-25.81-5.49-7.85-15.39-11.22-24.74-13-9.85-1.87-20.48-3.18-31.89-3.92-15.11-.99-29.16-2.13-42.14-3.42Z" style="stroke-width:0px;"/><ellipse cx="1967.48" cy="13.79" rx="8.18" ry="8.41" transform="translate(-.05 10.3) rotate(-.3)" style="stroke-width:0px;"/><ellipse cx="2262.37" cy="13.79" rx="8.4" ry="8.19" transform="translate(2228.83 2275.95) rotate(-89.5)" style="stroke-width:0px;"/><path d="M1457.1,56.4c0,.67.21.74.63.23,8.52-10.41,21.37-16.95,34.68-15.43,17.97,2.05,24.72,16.37,22.92,32.97-.03.27.16.52.44.56.01,0,.03,0,.04,0,7.32.26,15.14,1.07,15.15-9.01.03-19.65.04-39.39.03-59.2,0-.29.24-.53.54-.53h15.43c.2,0,.36.16.36.35h0c.07,21.69.04,42.54-.08,62.54-.01,2.81-.61,5.77-1.8,8.88-3.16,8.23-11.56,11.18-19.74,11.19-48.69.1-96.27.11-142.73.03-5.05,0-9.18-1.77-12.39-5.29-.23-.25-.46-.26-.71-.03-5.94,5.41-15.46,5.72-23.37,5.25-4.95-.29-8.75-2.02-11.39-5.18-.23-.27-.48-.29-.75-.06-3.6,3.03-8.38,4.74-14.35,5.12-7.06.45-13.56.37-19.51-.23-3.47-.35-6.63-1.42-9.5-3.19-.28-.17-.62-.19-.91-.05-13.94,6.48-38.53,2.84-40.1-16.24-1.41-17.19,11.97-26.58,27.84-26.8,7.71-.11,15.7-.12,23.97-.04.13,0,.24.11.24.24h0c.02,6.98.01,14.33-.02,22.05-.03,4.63-.08,9.8,6.07,10.15,3.21.18,6.21.13,9.02-.16,5.34-.54,6.55-4.7,6.54-9.24-.02-7.61-.02-15.09-.01-22.44,0-.42.21-.63.63-.63h15.24c.36,0,.54.18.55.54.05,6.71.04,13.89-.02,21.54-.05,5.19,1.97,9.5,7.47,10.29,7.51,1.08,11.71-1,11.73-9.23.01-7.67.01-15.21,0-22.6,0-.36.18-.54.54-.54h15.21c.39,0,.58.19.58.58-.03,7.22-.03,14.47.01,21.75.03,6.83,3.4,10.24,10.11,10.23,18.2-.03,36.45-.04,54.75-.02.22,0,.33-.11.33-.33V6.97c.01-.64.33-.96.97-.96l14.72-.02c.43,0,.64.21.64.64v49.77ZM1489.07,56.11c-12.22-1.92-24,8.7-31.29,18.21-.09.11-.07.28.04.36.05.04.11.06.17.06h40.83c.17,0,.32-.11.35-.28,1.25-7.84-1.3-16.97-10.1-18.35ZM1266.31,64.05c-.86,10.35,11.24,10.08,18.18,8.55.21-.05.36-.23.36-.45l.02-14.98c0-.42-.21-.64-.63-.66-5.96-.3-17.23-.94-17.93,7.54Z" style="stroke-width:0px;"/><rect x="1560.01" y="5.99" width="16.32" height="83.02" rx=".42" ry=".42" style="stroke-width:0px;"/><path d="M1643.63,56.61c10.06-13.09,28.86-19.79,43.91-12.93,16.84,7.67,15.17,30.2,11.06,45.04-.05.19-.18.29-.38.29h-80.43c-.36,0-.54-.18-.54-.55v-12.98c.01-.4.33-.72.73-.73h8.02c.36-.01.54-.19.54-.55V6.36c-.01-.2.15-.36.35-.36h15.65c.26,0,.47.2.47.46v49.93c0,.68.21.75.62.22ZM1671.26,55.88c-10.71.59-20.76,9.6-27.77,18.25-.33.41-.23.61.29.61h40.71c.37,0,.57-.18.61-.54,1.05-9.67-2.66-18.94-13.84-18.32Z" style="stroke-width:0px;"/><path d="M2106.16,74.72c3.87.11,7.39.06,10.56-.14,6.81-.43,7.17-6.12,7.16-11.35-.01-6.83-.01-13.63,0-20.4,0-.34.27-.62.61-.62,0,0,0,0,0,0h15.07c.43,0,.64.21.64.63.07,6.45.06,13.61-.03,21.48-.08,6.93,3.26,10.44,10.23,10.44,24.43,0,46.62-.02,66.58-.03,3.63,0,6.18-1.88,6.26-5.85.11-6.02.13-12.13.05-18.33,0-.18.14-.32.32-.32h0l15.63-.02c.36,0,.54.18.54.54.03,5.45,0,11.27-.07,17.45-.05,4.54,2.46,6.74,7.55,6.61,4.41-.11,6.63-2.22,6.66-6.31.05-6.11.06-12.01.03-17.72,0-.37.19-.56.56-.56h15.49c.23,0,.42.19.42.42.05,5.5.04,11.56-.01,18.17-.04,5.81,5.78,6.79,10.2,5.57,4.32-1.19,4.14-6.52,4.1-10.06-.07-7.01-.08-14.18-.03-21.53,0-.32.26-.58.58-.58h15.21c.35,0,.53.18.53.53,0,7.43,0,14.93-.01,22.52,0,4.57,2.35,8.47,7.04,9.27,6.99,1.19,12.07-.99,12.07-8.88.01-19.83.02-39.59.01-59.27,0-.21.17-.38.38-.38l15.49-.02c.31,0,.56.25.56.55h0c.04,19.77.04,39.66-.01,59.66-.03,10.75-3.46,19.73-15.3,22-4.16.8-8.72,1.05-13.69.74-4.94-.3-8.78-2.04-11.51-5.21-.19-.21-.39-.23-.6-.04-7.93,6.82-21.24,7.06-29.71,1.67-.37-.23-.75-.23-1.12,0-6.31,4-13.95,4.25-21.58,3.31-3.39-.41-6.42-1.58-9.07-3.51-.3-.22-.61-.23-.92-.02-3.66,2.53-7.66,3.8-12,3.82-14.91.07-39.61.08-74.11.02-4.51-.01-8.4-1.73-11.65-5.16-.23-.25-.49-.27-.76-.06-4.65,3.46-10.25,5.2-16.81,5.22-14.08.04-29.76.06-47.05.05-4.8,0-9.17,2.76-8.37,8.07,1.11,7.4,13.03,5.64,17.96,5.06.41-.05.65.13.73.53l2.63,12.54c.05.27-.1.53-.36.6-8.17,2.39-15.83,2.4-22.99.01-10.22-3.41-15.59-12.51-14.27-23.07,1.5-11.97,11.53-17.81,22.87-17.96,6.33-.08,12.94-.09,19.81-.03.26,0,.4-.12.41-.38.39-8.15-1.99-16.89-11.38-18.22-4.27-.61-9.03-.35-14.26.76-.35.08-.71-.14-.8-.49l-3.2-12.28c-.11-.44.04-.73.47-.88,6.05-2.01,12.42-2.7,19.1-2.07,19.13,1.8,27.1,14.79,26.46,32.77-.02.48.21.73.69.74Z" style="stroke-width:0px;"/><rect x="2349.09" y="5.99" width="16.42" height="83.02" rx=".44" ry=".44" style="stroke-width:0px;"/><path d="M1056.61,196.47c25.5-1.25,50.16-10.26,66.26-30.01,2.66-3.25,4.81-6.61,6.45-10.08.14-.29.47-.44.77-.35l34.6,10.02c.28.08.43.37.35.64,0,.02-.01.04-.02.07-3.11,7.2-7.59,14.16-12.6,20.2-21.93,26.5-54.42,39.42-88.86,41.89-34.74,2.49-73.8-2.79-101.57-25.07-28.43-22.8-39.59-58.47-38.07-94.68.29-6.83,1.21-13.41,2.78-19.74,15.94-64.38,78.93-87.11,139.66-82.01,40.79,3.43,79.25,24.24,96.54,61.87.31.67.11,1.12-.59,1.34l-34.06,10.7c-.29.08-.6-.05-.73-.32-6.85-13.75-17.5-24.34-31.96-31.75-19.59-10.04-44.67-12.18-66.44-8.21-41.83,7.62-67.73,41.05-65.73,83.56,1.37,29.37,19.28,53.11,46.22,64.5,13.75,5.81,29.42,8.29,47,7.43Z" style="stroke-width:0px;"/><path d="M546.79,40.63c0,.42.14.47.43.16,14.26-15.53,34.26-26.33,54.57-30.2,23.47-4.48,46.02-3.33,67.65,3.45,17.91,5.61,31.65,16.19,41.23,31.74.06.1.2.14.3.07.02-.01.04-.03.06-.05,12.21-15.16,29.8-26.27,48.06-31.84,32.14-9.8,70.66-9.44,100.72,6.91,22.52,12.25,35.77,30.42,39.76,54.5,1.21,7.3,1.81,15.3,1.81,24,0,40.58.02,81.38.03,122.4,0,.22-.17.39-.39.39h-36.24c-.25,0-.46-.21-.46-.47,0-37.65-.01-74.61-.01-110.86,0-6.66-.24-12.76-.72-18.3-2.06-23.68-16.72-38.57-38.19-45.93-26.71-9.17-61.34-3.05-82.94,15.56-9.49,8.17-15.29,17.94-17.39,29.3-.92,4.99-1.38,10.64-1.39,16.96,0,37.68,0,75.46.01,113.33,0,.23-.18.41-.41.41h-36.22c-.28,0-.5-.22-.5-.5.08-39.73.06-78.6-.06-116.61-.09-28.16-10.18-50.29-39.14-59.45-7.25-2.29-14.77-3.37-22.55-3.23-25.69.46-50.73,9.41-67.11,29.69-5.7,7.05-9.59,16.4-10.3,25.17-.43,5.32-.62,10.77-.62,15.98,0,36.11.01,72.23.02,108.38,0,.38-.19.57-.57.57h-37.53c-.16,0-.29-.13-.29-.29V13.91c0-.18.15-.33.33-.33h37.48c.38,0,.57.19.57.56v26.49Z" style="stroke-width:0px;"/><ellipse cx="1883.71" cy="20.13" rx="8.19" ry="8.37" transform="translate(-.08 29.59) rotate(-.9)" style="stroke-width:0px;"/><ellipse cx="2074.21" cy="20.13" rx="8.18" ry="8.37" transform="translate(-.09 25.34) rotate(-.7)" style="stroke-width:0px;"/><circle cx="1269.46" cy="21.34" r="8.28" style="stroke-width:0px;"/><circle cx="1289.21" cy="21.34" r="8.28" style="stroke-width:0px;"/><circle cx="2426.17" cy="21.34" r="8.29" style="stroke-width:0px;"/><circle cx="2445.9" cy="21.34" r="8.28" style="stroke-width:0px;"/><ellipse cx="2484.22" cy="21.34" rx="8.38" ry="8.18" transform="translate(2458.54 2505.52) rotate(-89.9)" style="stroke-width:0px;"/><circle cx="1957.12" cy="30.61" r="8.31" style="stroke-width:0px;"/><circle cx="1976.86" cy="30.61" r="8.3" style="stroke-width:0px;"/><circle cx="2252" cy="30.61" r="8.31" style="stroke-width:0px;"/><circle cx="2271.75" cy="30.61" r="8.3" style="stroke-width:0px;"/><path d="M2574.48,74.13c-1.51-9.14-10.05-17.26-17.74-22.16-.29-.18-.37-.57-.19-.86,0-.02.02-.03.03-.04l9.07-12.03c.31-.41.68-.47,1.11-.2,12.91,8.16,22.42,19.43,23.84,35.28.03.41.26.62.67.62h63.23c.51.01.65-.22.43-.68-.81-1.67-1.28-3.52-1.53-5.36-2.55-18.48,11.87-28.63,28.74-27.63,9.19.54,15.9,4.36,20.13,11.46,5.95,10.01,3.42,25.12-6.4,31.69-6.36,4.25-13.31,4.83-21.07,4.82-41.89-.05-85.3-.05-130.23-.02-.51,0-.77-.26-.77-.77v-12.92c-.01-.32.25-.58.58-.58h29.58c.42-.01.59-.21.52-.62ZM2675.19,56.68c-7,2.81-6.81,11.62-3.74,17.49.17.33.45.51.82.53,6.37.32,14.36,1.1,16.4-6.63,2.32-8.82-5.64-14.54-13.48-11.39Z" style="stroke-width:0px;"/><path d="M1743.46,89.01c-9.75.32-19-.28-26.09-7.16-9.3-9.01-7.64-25.6,1.65-34.02,6.31-5.72,14.04-7.86,23.19-6.43,9.51,1.49,15.5,6.82,17.96,15.99,1.39,5.18.74,11.29.85,16.81,0,.36.19.54.56.54,24.85.01,48.84,0,71.96-.02,7.25,0,7.25-7.26,7.22-12.43-.03-6.59-.04-13.11-.01-19.54,0-.36.18-.54.55-.54h15.2c.37,0,.56.19.55.56-.03,7.16-.03,14.54.02,22.13.04,6.62,3.76,9.93,9.93,9.89,10.33-.07,20.38-.08,30.13-.03.29,0,.45-.14.49-.42,1.03-7.72-.9-15.71-9.33-17.84-4.63-1.17-10.39-.61-15.38.42-.34.07-.67-.14-.76-.47l-3.37-12.49c-.09-.32.03-.53.35-.63,7.44-2.31,14.86-2.91,22.25-1.78,17.29,2.63,23.82,15.74,22.79,32.52-.03.45.19.68.64.69,2.89.05,5.56,0,8.01-.11,3.67-.18,5.53-2.31,5.6-6.4.1-5.93.11-11.76.04-17.47,0-.3.23-.54.53-.55,0,0,0,0,.01,0h15.26c.3,0,.54.23.54.52,0,0,0,0,0,0,0,5.41,0,11.3.01,17.67.02,5.47,4.15,6.73,8.68,6.29,3.63-.35,5.46-2.34,5.5-5.98.07-5.77.08-11.71.03-17.82,0-.38.3-.68.68-.69,0,0,0,0,.01,0l15.13-.02c.47,0,.71.24.71.71-.03,6.15-.04,12.08-.03,17.77,0,3.93,2.18,5.97,6.52,6.12,5.07.17,7.62-2.05,7.63-6.66.02-8.49.03-16.94.02-25.36,0-.39.19-.58.58-.58h15.25c.4,0,.6.2.6.59.01,9.34,0,18.5-.04,27.49-.07,18.68-22.62,23.08-35.36,14.99-.32-.2-.64-.2-.96.01-5.82,3.89-12.67,4.1-19.67,3.6-4.39-.31-8.15-1.61-11.29-3.91-.15-.11-.35-.1-.49,0-4.38,3.38-9.12,3.95-15.29,3.98-28.21.11-48.04.09-59.49-.06-4.45-.07-8.25-1.77-11.4-5.12-.24-.25-.49-.27-.76-.06-4.43,3.43-9.57,5.17-15.42,5.2-19.56.11-44.43.12-74.6.05-.48,0-.74.24-.79.71-2.06,19.79-23.32,21.99-38.6,20.34-.29-.03-.52-.27-.54-.56l-.75-13.54c-.02-.33.23-.6.55-.62.03,0,.07,0,.1,0,6.91.85,18.95,1.51,22.67-5.46.31-.59.14-.87-.53-.84ZM1734.11,74.19c2.38.65,5.71.82,9.98.5.38-.03.58-.23.59-.61.15-4.37.04-8.01-.33-10.92-.51-4.03-2.46-6.4-5.87-7.11-11.34-2.38-14.56,15.38-4.37,18.14Z" style="stroke-width:0px;"/><path d="M2486.77,83.64c-3.32,3.01-8,4.74-14.03,5.17-7.78.56-18.36.9-24.95-3.42-.29-.19-.65-.22-.96-.08-14.45,6.5-38.42,3.03-40.18-16.72-1.08-12.11,6.33-21.49,17.8-24.82,3.86-1.12,8.19-1.65,12.99-1.6,6.51.07,13.41.08,20.7,0,.4,0,.6.2.6.59.03,7.74.02,15.57-.02,23.48-.02,3.67.6,7.65,4.95,8.28,4.4.64,10.86.73,11.87-4.89.47-2.62.69-5.52.66-8.69-.06-5.94-.07-12-.02-18.17,0-.38.19-.57.57-.57h15.09c.43,0,.65.22.65.65.03,6.66.03,14.02,0,22.08-.04,10.21,7.9,10.11,15.56,9.76,5.1-.24,7.69-2.94,7.77-8.09.11-7.68.13-15.6.06-23.77,0-.42.2-.63.63-.63h15.09c.45,0,.67.22.68.67.14,8.99.11,17.46-.1,25.41-.39,15.08-8.71,20.05-22.09,20.68-5.26.25-9.76.12-13.5-.37-3.68-.48-6.72-2.12-9.12-4.91-.22-.26-.45-.28-.7-.05ZM2422.94,64.68c-.39,9.62,11.57,9.49,18.12,7.9.27-.06.46-.31.47-.59v-15.02c.01-.31-.14-.46-.45-.47-6.15-.18-17.76-1.16-18.14,8.18Z" style="stroke-width:0px;"/><circle cx="1319.63" cy="105.68" r="8.28" style="stroke-width:0px;"/><circle cx="1339.36" cy="105.68" r="8.28" style="stroke-width:0px;"/><ellipse cx="1365.92" cy="105.68" rx="8.35" ry="8.18" transform="translate(1224.52 1468.37) rotate(-88.5)" style="stroke-width:0px;"/><circle cx="1847.39" cy="105.68" r="8.28" style="stroke-width:0px;"/><circle cx="2119.75" cy="105.67" r="8.28" style="stroke-width:0px;"/><circle cx="2139.49" cy="105.68" r="8.28" style="stroke-width:0px;"/><circle cx="2510.44" cy="105.67" r="8.28" style="stroke-width:0px;"/><circle cx="2530.18" cy="105.68" r="8.28" style="stroke-width:0px;"/><path d="M1324.5,185.86c4.22-7.67,14.81-8.45,22.04-5.51,7.47,3.04,9.28,11.73,9.36,19.17.09,8.69.11,18.24.06,28.64,0,.46-.24.69-.69.69h-13.77c-.47.01-.71-.23-.71-.7.04-8.5.03-16.96-.04-25.37-.04-4.7-1.19-10.15-6.79-10.56-7.88-.58-9.94,5.19-9.93,11.65,0,7.97,0,16.08-.03,24.31,0,.45-.23.67-.68.67h-14.03c-.22.01-.4-.17-.4-.39h0v-74.84c0-.47.23-.71.7-.71h13.91c.34,0,.51.17.51.51v32.32c.01.67.17.71.49.12Z" style="stroke-width:0px;"/><path d="M1463.77,205.12l.04,23.39c0,.19-.15.34-.34.34h-14.42c-.19,0-.34-.15-.34-.34h0s0-75.27,0-75.27c0-.19.15-.34.34-.34l14.44.05c.19,0,.34.15.34.34h0s-.03,44.99-.03,44.99c0,.19.14.34.33.35.1,0,.2-.04.27-.12l15.87-18.43c.06-.08.16-.12.26-.12l17.82-.02c.19,0,.34.15.34.34,0,.09-.03.17-.09.23l-18.81,21.31c-.11.12-.12.3-.02.43l19.34,26.06c.11.15.08.36-.07.47-.06.04-.13.07-.21.07h-18.33c-.11,0-.22-.05-.28-.14l-15.82-23.78c-.11-.15-.32-.19-.47-.09-.09.06-.15.17-.15.28Z" style="stroke-width:0px;"/><path d="M1520.11,185.59c2.33-3.77,6.04-6,10.37-6.54,15.52-1.92,20.82,7.44,20.94,21.53.07,8.94.09,18.15.05,27.62,0,.43-.23.65-.66.65h-14.01c-.4.01-.6-.19-.59-.58.09-8.94.07-17.78-.05-26.53-.07-4.47-1.6-9.06-6.57-9.51-7-.64-9.96,4.11-10,10.3-.07,8.94-.08,17.47-.04,25.6,0,.49-.24.73-.73.73l-13.79-.02c-.43,0-.64-.21-.64-.64v-74.7c0-.39.19-.58.57-.58h14.05c.29-.01.53.22.53.51h0s-.01,31.99-.01,31.99c0,.73.19.78.58.17Z" style="stroke-width:0px;"/><path d="M1664.31,185.63c1.99-3.37,5.05-5.49,9.2-6.36,3.73-.78,8.56-.58,12.16.82,8.12,3.15,9.84,11.84,9.93,19.81.11,9.83.12,19.28.04,28.35,0,.41-.21.61-.62.61l-14-.02c-.44,0-.66-.22-.65-.65.03-8.65.04-17.34.01-26.07-.02-5.53-2.01-10.53-8.8-9.9-6.05.56-7.82,5.62-7.82,10.85-.01,7.84-.02,16.21-.01,25.1,0,.46-.23.69-.69.68h-14.05c-.23,0-.42-.19-.42-.42h0s.01-74.88.01-74.88c0-.36.29-.65.65-.65h0l13.88.03c.41,0,.61.21.61.62v31.93c.01.74.2.79.57.15Z" style="stroke-width:0px;"/><path d="M1775.25,204.92l.05,23.58c0,.19-.15.34-.34.34h0l-14.23.03c-.47,0-.71-.24-.71-.72v-74.72c0-.35.17-.52.51-.52h14.24c.35.01.52.18.52.53l-.02,44.8c0,.55.18.61.53.2l15.76-18.26c.13-.15.29-.22.49-.22l17.48-.04c.2,0,.37.17.37.37,0,.04,0,.07-.02.1-.09.3-.24.57-.45.8-6.29,7.05-12.32,13.87-18.07,20.46-.2.23-.22.58-.03.83l19.25,25.96c.08.12.05.28-.06.36-.04.03-.09.05-.15.05h-18.12c-.36.01-.64-.14-.83-.44l-15.74-23.62c-.29-.43-.43-.39-.43.13Z" style="stroke-width:0px;"/><path d="M1831.48,185.63c4.53-7.36,14.52-8.23,21.71-5.39,7.59,3,9.55,11.66,9.57,19.18.02,8.83.02,18.41.01,28.74,0,.46-.23.69-.69.69h-13.79c-.36.01-.65-.28-.65-.64h0c.11-9.13.08-18.14-.08-27.04-.06-3.6-1.69-8.16-5.71-8.8-9.28-1.49-11.02,5.41-10.92,13,.1,7.73.11,15.34.03,22.83,0,.36-.3.65-.66.65h-13.83c-.48.01-.72-.23-.72-.71v-74.69c-.01-.29.22-.53.51-.53h0l14.1-.02c.34,0,.62.27.63.62,0,0,0,0,0,.01v31.96c0,.62.16.67.49.14Z" style="stroke-width:0px;"/><path d="M1889.81,184.49c3.81-4.78,10.58-5.92,16.49-5.6,18.76,1.02,25.44,25.69,17.24,39.88-3.82,6.6-9.8,10.33-17.95,11.2-6.53.69-13.19-1.82-17.15-6.93-.37-.49-.56-.42-.56.19l.02,4.97c0,.43-.21.65-.64.65h-12.54c-.47.01-.71-.23-.71-.71v-74.71c0-.34.17-.51.52-.51h14.01c.37,0,.55.18.55.54v30.78c.01.77.25.85.72.25ZM1911.7,203.01c-.02-5.96-4.87-10.78-10.84-10.76h-2.12c-5.96.03-10.78,4.88-10.76,10.85v2.74c.03,5.96,4.88,10.78,10.85,10.76h2.12c5.96-.03,10.78-4.88,10.76-10.85v-2.74Z" style="stroke-width:0px;"/><path d="M2310.89,223.17c-9.58,11.06-26.4,8.06-34.14-2.96-9.56-13.61-3.18-39.67,15.71-41.26,6.34-.54,13.13.71,17.35,5.69.29.35.44.29.44-.16l-.04-31.02c0-.36.18-.54.54-.54h14.25c.35-.01.52.16.52.5v74.72c0,.47-.24.71-.71.71h-12.59c-.48.01-.72-.23-.72-.71v-4.74c-.01-.62-.21-.7-.61-.23ZM2311.39,202.98c-.04-5.97-4.92-10.78-10.89-10.73h-2.12c-5.97.06-10.78,4.93-10.73,10.9l.02,2.72c.04,5.97,4.92,10.78,10.89,10.73h2.12c5.97-.06,10.78-4.93,10.73-10.9h0s-.02-2.72-.02-2.72Z" style="stroke-width:0px;"/><rect x="2465.05" y="152.92" width="15.16" height="75.94" rx=".39" ry=".39" style="stroke-width:0px;"/><path d="M1267.53,230.38c-7.11-.81-13.3-3.59-18.56-8.35-.2-.18-.21-.48-.04-.67l10.63-11.68c.17-.19.35-.19.52,0,5.3,5.81,11.5,7.67,18.61,5.58,4.9-1.44,7.92-7.23,3.62-11.06-1.65-1.47-3.58-2.56-5.79-3.29-12.28-4.05-27.17-7.16-25.46-24.11,2.33-23.03,34.15-26.14,48.66-13.68.18.15.2.42.05.59,0,0,0,0,0,0l-10.14,11.09c-.17.19-.46.2-.65.03,0,0,0,0,0,0-4.41-3.94-9.57-5.17-15.46-3.69-4.58,1.15-8.23,5.73-4.98,10.16,1.11,1.52,3.14,2.76,6.07,3.72,4.18,1.37,8.3,2.69,12.37,3.97,1.86.59,4.03,1.82,6.52,3.69,3.71,2.79,5.83,6.51,6.36,11.15,2.34,20.37-14.9,28.53-32.32,26.54Z" style="stroke-width:0px;"/><circle cx="1430.26" cy="164.73" r="8.81" style="stroke-width:0px;"/><path d="M1599.15,209.79c.18-.2.49-.21.69-.03,0,0,.02.02.03.03,5.17,5.63,11.26,7.48,18.27,5.55,5.08-1.4,7.97-6.56,4.07-11.01-1.09-1.24-3.24-2.42-6.47-3.54-9.32-3.23-22.76-5.93-24.66-17.48-2.62-15.9,8.76-26.08,23.85-27.23,9.32-.71,17.33,1.44,24.27,6.81.39.31.42.64.08,1.01l-9.93,10.86c-.25.28-.52.29-.8.03-4.73-4.38-12.47-5.83-18.37-2.33-3.79,2.25-4.29,7.47-.72,10.08,1.81,1.33,3.89,2.35,6.25,3.04,10.15,2.99,22.88,5.86,23.95,18.98,1.09,13.37-6.33,22.59-19.05,25.27-11.19,2.35-22.99.13-31.75-7.61-.31-.27-.34-.74-.06-1.04,0,0,0,0,0,0l10.35-11.38Z" style="stroke-width:0px;"/><circle cx="2344.41" cy="164.73" r="8.82" style="stroke-width:0px;"/><path d="M2563.06,171.87c-20.56-7.14-33.54,15.39-25.4,32.46,3.37,7.07,8.78,10.97,16.23,11.71,6.02.6,12.18-2.04,15.6-7.17.17-.26.52-.33.78-.16,0,0,.02.01.02.02l12.29,9.15c.28.21.33.6.13.88-7.63,10.16-20.38,13.33-32.62,11.41-16.83-2.63-28.7-14.08-30.84-31.19-2.38-19.05,6.69-35.97,25.73-41.41,12.41-3.54,27.1-1.8,36.02,8.36.22.26.2.65-.06.87,0,0,0,0-.01.01l-11.32,9.22c-.27.22-.67.18-.89-.09,0,0,0,0,0,0-1.6-1.96-3.49-3.32-5.66-4.07Z" style="stroke-width:0px;"/><circle cx="2596.33" cy="164.74" r="8.82" style="stroke-width:0px;"/><path d="M2190.3,175.73c0-1.07-.17-1.1-.52-.09l-18.05,52.64c-.11.34-.43.57-.8.57h-10.83c-.42.01-.7-.19-.83-.59l-17.12-51.99c-.47-1.41-.7-1.37-.7.12v51.79c.01.45-.22.68-.67.68h-14.67c-.21,0-.38-.18-.38-.39h0s.01-70.24.01-70.24c0-.28.22-.5.49-.5l22.61.02c.43,0,.71.2.86.6l15.8,44.83c.24.68.48.68.72,0l15.97-45.02c.09-.25.33-.42.59-.42h22.77c.27,0,.48.21.48.48v69.93c0,.39-.32.71-.71.71l-14.35-.02c-.47,0-.7-.23-.7-.7l.03-52.41Z" style="stroke-width:0px;"/><path d="M2073.15,192.81c.03,6.01.08,11.8.14,17.37.03,2.58.59,4.4,1.69,5.47,2.48,2.41,8.01,1.83,10.9.65.41-.17.61-.03.61.41v11.27c0,.4-.19.66-.58.77-8.46,2.37-21.77,2.59-26.47-6.42-1.02-1.96-1.51-4.72-1.48-8.28.07-7.75.1-14.87.08-21.34,0-.36-.18-.54-.54-.54h-8.49c-.34,0-.62-.28-.62-.62v-10.92c0-.45.24-.67.69-.67l8.45-.02c.28,0,.5-.23.5-.51h0v-13.19c0-.47.23-.7.7-.7h13.69c.53,0,.8.27.8.8l-.03,13.07c0,.36.18.54.55.54h12.02c.49,0,.74.24.74.73v10.77c-.01.48-.25.72-.74.72h-11.97c-.43-.01-.65.21-.64.64Z" style="stroke-width:0px;"/><path d="M2635.02,179.95h11.72c.47,0,.7.23.7.7v10.83c0,.47-.24.7-.71.7l-11.91-.03c-.31,0-.56.25-.56.56h0c.01,5.01,0,9.92-.03,14.72-.02,3.8-.25,8.75,4.77,9.63,2.79.49,5.39.23,7.79-.76.43-.18.65-.04.65.43v11.27c0,.48-.23.77-.69.88-11.3,2.71-27.53,1.92-27.68-13.31-.07-7.61-.08-15.22-.03-22.84,0-.4-.2-.6-.59-.59l-8.53.09c-.29,0-.52-.23-.52-.52h0s0-11.2,0-11.2c0-.37.19-.56.56-.56h8.57c.28,0,.5-.23.5-.51h0v-13.2c0-.47.23-.71.7-.71h13.84c.47-.01.7.23.7.7v12.96c.01.51.26.76.76.76Z" style="stroke-width:0px;"/><path d="M1379.48,209.98c2.95,10.28,15.25,11.22,21.22,3.21.29-.39.83-.47,1.22-.18,0,0,0,0,0,0l9.53,6.99c.27.2.33.58.13.86-.01.01-.02.03-.03.04-11.31,13.01-34.29,12.3-43.69-2.8-5.94-9.53-4.78-22.36,2.43-30.57,5.78-6.58,14.54-9.21,23.31-8.61,11.69.81,19.03,9.62,20.28,20.8.33,2.97.45,5.98.34,9.04-.01.26-.22.46-.47.46l-33.68-.02c-.55,0-.74.26-.59.78ZM1379.66,198.94l19.3-.14c.08,0,.14-.06.14-.14v-.09c-.04-4.9-4.39-8.84-9.72-8.8h-.26c-5.33.04-9.63,4.04-9.6,8.94h0v.09c0,.08.06.14.14.14h0Z" style="stroke-width:0px;"/><path d="M1735.44,223.52c-4.22,7.24-16.53,7.59-23.18,4.98-4.92-1.94-8.52-6.32-9-11.63-1.68-18.39,19.69-19.34,32.19-19.1.55,0,.79-.26.71-.81-1.18-8.3-10.56-9.27-16.56-6.08-1.78.95-3.37,2.16-4.77,3.65-.31.33-.61.33-.92.01l-7.2-7.34c-.28-.29-.27-.74,0-1.01.01-.01.03-.03.04-.04,5.21-4.39,11.36-6.8,18.45-7.23,17.61-1.07,24.84,6.62,24.91,24.03.04,8.53.05,16.97.02,25.33,0,.39-.19.58-.58.58h-12.96c-.25,0-.45-.2-.45-.45l-.06-4.72c0-.85-.22-.91-.65-.17ZM1731.27,218.22c3.9-1.89,5.48-5.3,4.75-10.23-.05-.37-.27-.55-.65-.54-4.38.06-15.99-.36-17.41,5.53-.74,3.1.53,5.16,3.81,6.17,3.08.96,6.25.65,9.5-.93Z" style="stroke-width:0px;"/><path d="M1968.99,180.07c24.48,7.11,24.77,41.33.12,48.77-12.86,3.88-28.41-1.01-33.89-13.89-2.55-5.99-2.87-12.1-.97-18.31,4.55-14.87,20.61-20.66,34.74-16.57ZM1972.14,203.16c.04-5.97-4.76-10.84-10.73-10.89h-2.14c-5.97-.06-10.84,4.75-10.89,10.72h0s-.02,2.7-.02,2.7c-.04,5.97,4.76,10.84,10.73,10.89h2.14c5.97.06,10.84-4.75,10.89-10.72h0s.02-2.7.02-2.7Z" style="stroke-width:0px;"/><path d="M2231.19,209.96c3.14,10.06,15.22,11.53,21.18,3.27.3-.42.88-.51,1.29-.22,0,0,0,0,0,0l9.38,6.89c.48.35.52.75.12,1.19-5.77,6.29-12.98,9.26-21.63,8.92-13.17-.53-24.46-9.24-25.53-22.62-.91-11.37,3.32-19.76,12.69-25.15,6.27-3.61,15.98-4.54,22.73-2.05,11.96,4.42,15.27,16.59,14.37,28.51-.03.34-.21.51-.55.51l-33.51-.02c-.53,0-.71.25-.55.76ZM2231.27,198.93l19.34-.06c.1,0,.18-.08.18-.18v-.08c-.01-4.92-4.37-8.89-9.74-8.87,0,0,0,0-.01,0h-.28c-5.36.02-9.68,4.02-9.67,8.93v.08c0,.1.08.18.18.18Z" style="stroke-width:0px;"/><path d="M2388.79,216.56c2.03-.14,4.15-1.59,5.52-3.11.33-.36.67-.36,1.01-.01l9.12,9.58c.33.35.32.68-.03,1.01-2.62,2.4-5.51,4.01-8.67,4.84-15,3.94-32.44-2.83-35.07-19.66-1.95-12.56,3.8-23.9,15.68-28.44,8.91-3.41,20.69-2.55,27.91,3.9.47.42.48.86.05,1.32l-8.89,9.34c-.32.33-.64.34-.97,0-3.31-3.32-7.36-4.06-12.15-2.23-5.55,2.13-7.69,8.52-6.61,13.91,1.37,6.91,5.74,10.09,13.1,9.54Z" style="stroke-width:0px;"/><path d="M2440.42,223.47c-5.72,8.38-21.13,8.55-28.06,2-5.26-4.98-5.97-14.32-1.2-19.97,2.12-2.51,4.8-4.25,8.05-5.24,6.46-1.96,12.9-2.77,19.31-2.43,2.77.15,3.39-.94,1.86-3.25-.37-.57-.7-1.07-.99-1.51-1.37-2.07-3.29-3.3-5.74-3.68-5.17-.81-9.75.85-13.76,4.99-.43.45-.87.45-1.3,0l-7.05-7.24c-.23-.24-.23-.62,0-.86,0,0,.01,0,.02-.01,7.34-6.72,18.25-8.51,27.99-6.87,11.68,1.97,15.33,11.23,15.39,21.82.05,8.6.06,17.58.03,26.94,0,.46-.23.69-.69.69h-12.54c-.47.01-.7-.22-.7-.69v-4.5c0-.74-.21-.8-.62-.19ZM2436.21,218.18c3.82-1.92,5.4-5.32,4.75-10.19-.04-.31-.22-.47-.53-.48-4.53-.21-20.26-.2-17.56,8.37,1.59,5.07,9.75,4.1,13.34,2.3Z" style="stroke-width:0px;"/><rect x="1422.72" y="179.94" width="15.14" height="48.9" rx=".62" ry=".62" style="stroke-width:0px;"/><path d="M2027.31,222.83c-2.55,4.05-6.37,6.4-11.48,7.05-8.72,1.11-17.22-2.1-19.41-11.46-.74-3.16-1.12-6.33-1.14-9.51-.05-10.01-.06-19.5-.03-28.49,0-.27.21-.48.48-.48h14.31c.23.01.41.19.41.42v24.21c0,5.53.61,12.33,8.03,12.13,6.69-.17,8.61-5.13,8.68-11.07.11-8.65.12-17.01.04-25.07,0-.41.19-.61.6-.61h13.99c.29,0,.52.23.52.51v47.79c0,.34-.27.61-.61.61h-12.96c-.63,0-.95-.32-.94-.95l.02-4.94c0-.64-.17-.69-.51-.14Z" style="stroke-width:0px;"/><rect x="2336.81" y="179.94" width="15.16" height="48.92" rx=".54" ry=".54" style="stroke-width:0px;"/><rect x="2588.78" y="179.94" width="15.14" height="48.92" rx=".52" ry=".52" style="stroke-width:0px;"/><path d="M2680.52,211.4l10.3-30.96c.11-.33.35-.5.7-.5h14.5c.39.01.52.19.38.56-7.73,19.86-15.4,39.52-22.99,58.97-2.56,6.56-5.37,11.57-13.11,12.93-5.62.99-11.34.65-17.16-1-.4-.12-.65-.51-.59-.92l1.8-11.11c.07-.47.34-.62.79-.45,4.26,1.65,11.71,2.43,14.29-2.42,1.14-2.15,2.12-4.41,2.94-6.79.13-.37.11-.73-.04-1.08l-20.91-48.13c-.16-.37-.04-.55.36-.55h15.27c.37,0,.62.17.75.51l12.06,30.96c.23.61.45.6.66-.02Z" style="stroke-width:0px;"/></svg>